<svg width="0" height="0" class="hidden">
  <symbol version="1.1" id="instagram" xmlns="http://www.w3.org/2000/svg" xmlns:xlink="http://www.w3.org/1999/xlink" x="0px" y="0px" xml:space="preserve" viewBox="0 0 32 32">
    <path d="M23,31H9c-4.4,0-8-3.6-8-8V9c0-4.4,3.6-8,8-8h14c4.4,0,8,3.6,8,8v14C31,27.4,27.4,31,23,31z"></path>
    <circle cx="16" cy="16" r="7"></circle>
    <circle cx="24" cy="7" r="1"></circle>
  </symbol>
  <symbol version="1.1" id="chevron" xmlns="http://www.w3.org/2000/svg" xmlns:xlink="http://www.w3.org/1999/xlink" x="0px" y="0px" xml:space="preserve" viewBox="0 0 455 455">
    <path d="M227.5,0C101.855,0,0,101.855,0,227.5S101.855,455,227.5,455S455,353.145,455,227.5S353.145,0,227.5,0z M199.476,355.589
	l-21.248-21.178L284.791,227.5L178.228,120.589l21.248-21.178L327.148,227.5L199.476,355.589z"></path>
    <g></g>
    <g></g>
    <g></g>
    <g></g>
    <g></g>
    <g></g>
    <g></g>
    <g></g>
    <g></g>
    <g></g>
    <g></g>
    <g></g>
    <g></g>
    <g></g>
    <g></g>
  </symbol>
  <symbol version="1.1" xmlns="http://www.w3.org/2000/svg" xmlns:xlink="http://www.w3.org/1999/xlink" viewBox="0 0 20 20" id="github">
    <title>github [#142]</title>
    <desc>Created with Sketch.</desc>
    <defs></defs>
    <g id="Page-1" stroke="none" stroke-width="1" fill="none" fill-rule="evenodd">
      <g id="Dribbble-Light-Preview" transform="translate(-140.000000, -7559.000000)" fill="#000000">
        <g id="icons" transform="translate(56.000000, 160.000000)">
          <path d="M94,7399 C99.523,7399 104,7403.59 104,7409.253 C104,7413.782 101.138,7417.624 97.167,7418.981 C96.66,7419.082 96.48,7418.762 96.48,7418.489 C96.48,7418.151 96.492,7417.047 96.492,7415.675 C96.492,7414.719 96.172,7414.095 95.813,7413.777 C98.04,7413.523 100.38,7412.656 100.38,7408.718 C100.38,7407.598 99.992,7406.684 99.35,7405.966 C99.454,7405.707 99.797,7404.664 99.252,7403.252 C99.252,7403.252 98.414,7402.977 96.505,7404.303 C95.706,7404.076 94.85,7403.962 94,7403.958 C93.15,7403.962 92.295,7404.076 91.497,7404.303 C89.586,7402.977 88.746,7403.252 88.746,7403.252 C88.203,7404.664 88.546,7405.707 88.649,7405.966 C88.01,7406.684 87.619,7407.598 87.619,7408.718 C87.619,7412.646 89.954,7413.526 92.175,7413.785 C91.889,7414.041 91.63,7414.493 91.54,7415.156 C90.97,7415.418 89.522,7415.871 88.63,7414.304 C88.63,7414.304 88.101,7413.319 87.097,7413.247 C87.097,7413.247 86.122,7413.234 87.029,7413.87 C87.029,7413.87 87.684,7414.185 88.139,7415.37 C88.139,7415.37 88.726,7417.2 91.508,7416.58 C91.513,7417.437 91.522,7418.245 91.522,7418.489 C91.522,7418.76 91.338,7419.077 90.839,7418.982 C86.865,7417.627 84,7413.783 84,7409.253 C84,7403.59 88.478,7399 94,7399" id="github-[#142]"></path>
        </g>
      </g>
    </g>
  </symbol>
  <symbol version="1.1" xmlns="http://www.w3.org/2000/svg" xmlns:xlink="http://www.w3.org/1999/xlink" viewBox="0 0 72 72" id="linkedin">
    <title>Linkedin</title>
    <desc>Created with Sketch.</desc>
    <defs></defs>
    <g id="Page-1" stroke="none" stroke-width="1" fill="none" fill-rule="evenodd">
      <g id="Social-Icons---Rounded-Black" transform="translate(-376.000000, -267.000000)">
        <g id="Linkedin" transform="translate(376.000000, 267.000000)">
          <path d="M8,72 L64,72 C68.418278,72 72,68.418278 72,64 L72,8 C72,3.581722 68.418278,-8.11624501e-16 64,0 L8,0 C3.581722,8.11624501e-16 -5.41083001e-16,3.581722 0,8 L0,64 C5.41083001e-16,68.418278 3.581722,72 8,72 Z" id="Rounded" fill="#000000"></path>
          <path d="M62,62 L51.315625,62 L51.315625,43.8021149 C51.315625,38.8127542 49.4197917,36.0245323 45.4707031,36.0245323 C41.1746094,36.0245323 38.9300781,38.9261103 38.9300781,43.8021149 L38.9300781,62 L28.6333333,62 L28.6333333,27.3333333 L38.9300781,27.3333333 L38.9300781,32.0029283 C38.9300781,32.0029283 42.0260417,26.2742151 49.3825521,26.2742151 C56.7356771,26.2742151 62,30.7644705 62,40.051212 L62,62 Z M16.349349,22.7940133 C12.8420573,22.7940133 10,19.9296567 10,16.3970067 C10,12.8643566 12.8420573,10 16.349349,10 C19.8566406,10 22.6970052,12.8643566 22.6970052,16.3970067 C22.6970052,19.9296567 19.8566406,22.7940133 16.349349,22.7940133 Z M11.0325521,62 L21.769401,62 L21.769401,27.3333333 L11.0325521,27.3333333 L11.0325521,62 Z" fill="#FFFFFF"></path>
        </g>
      </g>
    </g>
  </symbol>
  <symbol version="1.1" id="email" xmlns="http://www.w3.org/2000/svg" xmlns:xlink="http://www.w3.org/1999/xlink" x="0px" y="0px" xml:space="preserve" viewBox="0 0 100.354 100.352">
    <path d="M93.09,76.224c0.047-0.145,0.079-0.298,0.079-0.459V22.638c0-0.162-0.032-0.316-0.08-0.462
	c-0.007-0.02-0.011-0.04-0.019-0.06c-0.064-0.171-0.158-0.325-0.276-0.46c-0.008-0.009-0.009-0.02-0.017-0.029
	c-0.005-0.005-0.011-0.007-0.016-0.012c-0.126-0.134-0.275-0.242-0.442-0.323c-0.013-0.006-0.023-0.014-0.036-0.02
	c-0.158-0.071-0.33-0.111-0.511-0.123c-0.018-0.001-0.035-0.005-0.053-0.005c-0.017-0.001-0.032-0.005-0.049-0.005H8.465
	c-0.017,0-0.033,0.004-0.05,0.005c-0.016,0.001-0.032,0.004-0.048,0.005c-0.183,0.012-0.358,0.053-0.518,0.125
	c-0.01,0.004-0.018,0.011-0.028,0.015c-0.17,0.081-0.321,0.191-0.448,0.327c-0.005,0.005-0.011,0.006-0.016,0.011
	c-0.008,0.008-0.009,0.019-0.017,0.028c-0.118,0.135-0.213,0.29-0.277,0.461c-0.008,0.02-0.012,0.04-0.019,0.061
	c-0.048,0.146-0.08,0.3-0.08,0.462v53.128c0,0.164,0.033,0.32,0.082,0.468c0.007,0.02,0.011,0.039,0.018,0.059
	c0.065,0.172,0.161,0.327,0.28,0.462c0.007,0.008,0.009,0.018,0.016,0.026c0.006,0.007,0.014,0.011,0.021,0.018
	c0.049,0.051,0.103,0.096,0.159,0.14c0.025,0.019,0.047,0.042,0.073,0.06c0.066,0.046,0.137,0.083,0.21,0.117
	c0.018,0.008,0.034,0.021,0.052,0.028c0.181,0.077,0.38,0.121,0.589,0.121h83.204c0.209,0,0.408-0.043,0.589-0.121
	c0.028-0.012,0.054-0.03,0.081-0.044c0.062-0.031,0.124-0.063,0.181-0.102c0.03-0.021,0.057-0.048,0.086-0.071
	c0.051-0.041,0.101-0.082,0.145-0.129c0.008-0.008,0.017-0.014,0.025-0.022c0.008-0.009,0.01-0.021,0.018-0.03
	c0.117-0.134,0.211-0.288,0.275-0.458C93.078,76.267,93.083,76.246,93.09,76.224z M9.965,26.04l25.247,23.061L9.965,72.346V26.04z
	 M61.711,47.971c-0.104,0.068-0.214,0.125-0.301,0.221c-0.033,0.036-0.044,0.083-0.073,0.121l-11.27,10.294L12.331,24.138h75.472
	L61.711,47.971z M37.436,51.132l11.619,10.613c0.287,0.262,0.649,0.393,1.012,0.393s0.725-0.131,1.011-0.393l11.475-10.481
	l25.243,23.002H12.309L37.436,51.132z M64.778,49.232L90.169,26.04v46.33L64.778,49.232z"></path>
  </symbol>
  <symbol xmlns="http://www.w3.org/2000/svg" xmlns:xlink="http://www.w3.org/1999/xlink" viewBox="0 0 1019.4842 436.68123" id="hero-img">
    <path d="M314.02808,475.27364a9.75072,9.75072,0,1,0-19.40734,1.28194l-28.01439,36.68607a13.58254,13.58254,0,0,0,1.83575,14.91417l2.19759,2.56354,10.083-2.01667,11.42794-10.08331L290.806,507.19164l14.1167-22.18324-.01825-.01592A9.74283,9.74283,0,0,0,314.02808,475.27364Z" transform="translate(-90.2579 -231.65939)" fill="#ffb9b9"></path>
    <polygon points="30.041 422.968 25.468 405.984 88.8 380.265 95.549 405.331 30.041 422.968" fill="#ffb8b8"></polygon>
    <path d="M105.002,663.39128,90.2579,608.62916l.69264-.18651a22.07516,22.07516,0,0,1,27.054,15.57522l.00037.00135L127.01,657.46609Z" transform="translate(-90.2579 -231.65939)" fill="#2f2e41"></path>
    <polygon points="117.278 420.254 103.054 409.91 136.185 350.121 157.179 365.388 117.278 420.254" fill="#ffb8b8"></polygon>
    <path d="M201.1368,668.34061,155.27068,634.9853l.42187-.58015a22.07517,22.07517,0,0,1,30.8348-4.87041l.00114.00082L214.54188,649.908Z" transform="translate(-90.2579 -231.65939)" fill="#2f2e41"></path>
    <path d="M328.45025,568.36357l-35.795-34.77263a18.07626,18.07626,0,0,0-23.66833-1.3221L201.4006,607.3525l6.05018,9.41084L271.98356,573.069l43.69437,57.13867,41.67764-20.83841Z" transform="translate(-90.2579 -231.65939)" fill="#2f2e41"></path>
    <path d="M312.98939,575.75807l-26.21673-2.01667-18.986-4.60272a9.75256,9.75256,0,1,0-1.85,12.65572l-.00277.01364,11.42793,4.70553,49.07181,16.80551,6.05-4.70553Z" transform="translate(-90.2579 -231.65939)" fill="#ffb9b9"></path>
    <polygon points="285.92 416.699 271.131 426.11 253.653 426.11 172.315 395.86 53.332 417.371 49.971 391.826 158.871 344.099 254.326 375.693 285.92 416.699" fill="#2f2e41"></polygon>
    <circle cx="254.32577" cy="227.13245" r="26.21658" fill="#ffb9b9"></circle>
    <path d="M412.41738,563.46316a150.631,150.631,0,0,1-7.3877,46.59159l-1.96286,6.03657-9.4111,43.0221-10.08328,2.68886-7.39442-9.41107-14.78884-10.7555L350.63366,624.158,341.41082,608.791l-2.87712-4.79967-10.08331-50.41649-38.31653-21.511-12.77217-2.01667,2.68889-7.39442,11.42774-15.46106L302.906,505.8472l3.36111-2.68888,2.68888,1.34443,14.82257,5.71013,48.05688-20.304,7.03142,1.14951L403.06674,511.225A150.49912,150.49912,0,0,1,412.41738,563.46316Z" transform="translate(-90.2579 -231.65939)" fill="#ccc"></path>
    <polygon points="314.825 325.949 289.281 342.754 251.153 377.131 248.276 372.332 240.209 331.999 242.226 331.999 263.065 293.683 314.825 325.949" opacity="0.1"></polygon>
    <polygon points="263.065 289.649 242.226 327.965 230.126 341.41 219.371 344.099 248.276 375.693 289.281 338.721 314.825 321.915 263.065 289.649" fill="#ccc"></polygon>
    <path d="M324.19252,439.29866l-2.8405,1.09286a3.96532,3.96532,0,0,1-1.06033-5.50666q.02295-.03393.04661-.06735l-5.24917-.24564a39.63744,39.63744,0,0,1,59.17341-4.76951c.239-.8231,2.84419.7783,3.90783,2.40209.35739-1.33937,2.8001,5.13521,3.66407,9.71188.4-1.52384,1.93791.9362.59056,3.2967.8537-.12472,1.23931,2.05947.57843,3.27633.934-.43878.77654,2.16855-.23609,3.911,1.3327-.11841-.1137,27.33122-20.1137,25.33122-1.39236-6.39749-1-6-2.63957-14.22639-.76312-.81-1.59882-1.54779-2.43315-2.28425l-4.51259-3.9833c-5.2473-4.63182-10.02063-10.34844-17.01093-12.07955-4.80393-1.18968-7.84143-1.45827-5.22344-6.87151-2.36532.98706-4.57411,2.45493-6.96063,3.37169C323.90539,440.90187,324.23894,440.05545,324.19252,439.29866Z" transform="translate(-90.2579 -231.65939)" fill="#2f2e41"></path>
    <circle cx="267.43406" cy="230.15744" r="4.70554" fill="#ffb9b9"></circle>
    <rect x="137.51364" y="351.37595" width="21.61009" height="21.61009" transform="translate(-313.1754 254.44578) rotate(-86.18992)" fill="#e6e6e6"></rect>
    <path d="M124.34354,362.13134l26.18282,1.74368-1.74369,26.18282-26.18282-1.74368Zm24.96862,2.80626-23.90605-1.59206-1.59206,23.906,23.90605,1.59206Z" transform="translate(-90.2579 -231.65939)" fill="#ccc"></path>
    <rect x="241.00867" y="288.77184" width="21.61009" height="21.61009" transform="translate(-147.57238 -172.07462) rotate(-12.12675)" fill="#e6e6e6"></rect>
    <path d="M245.27842,276.50957l5.51255,25.65526-25.65526,5.51254-5.51254-25.65526Zm4.15743,24.7795-5.0332-23.42436-23.42437,5.03319,5.03319,23.42438Z" transform="translate(-90.2579 -231.65939)" fill="#ccc"></path>
    <rect x="226.60299" y="392.67408" width="21.61008" height="21.61009" transform="translate(-301.94557 39.64172) rotate(-43.12712)" fill="#e6e6e6"></rect>
    <path d="M253.81456,385.99664,234.663,403.93538l-17.93873-19.15156,19.15156-17.93872Zm-19.09885,16.3261,17.48621-16.37883-16.37884-17.48618-17.48621,16.37884Z" transform="translate(-90.2579 -231.65939)" fill="#ccc"></path>
    <path d="M1053.535,231.65939H414.15223a17.59849,17.59849,0,0,0-17.59851,17.59849v356.2522a17.59854,17.59854,0,0,0,17.59851,17.59857H1053.535a17.59856,17.59856,0,0,0,17.59851-17.59857V249.25788a17.59852,17.59852,0,0,0-17.59851-17.59849Z" transform="translate(-90.2579 -231.65939)" fill="#3f3d56"></path>
    <rect x="329.89003" y="31.10145" width="627.39127" height="353.91303" fill="#fff"></rect>
    <circle cx="643.04942" cy="15.01449" r="6.43477" fill="#fff"></circle>
    <polygon points="777.858 385.015 329.89 385.015 329.89 31.102 777.858 385.015" fill="#f2f2f2"></polygon>
    <circle cx="428.05798" cy="298.22423" r="60.3068" fill="#6c63ff"></circle>
    <path d="M531.74082,575.21a75.01577,75.01577,0,1,1,75.01581-75.01575A75.01578,75.01578,0,0,1,531.74082,575.21Zm0-149.051A74.03519,74.03519,0,1,0,605.776,500.19428a74.03518,74.03518,0,0,0-74.03522-74.03521Z" transform="translate(-90.2579 -231.65939)" fill="#3f3d56"></path>
    <rect x="753.43694" y="214.96957" width="58.60522" height="12.24586" fill="#3f3d56"></rect>
    <rect x="697.99083" y="148.62679" width="169.49743" height="5.24823" fill="#3f3d56"></rect>
    <rect x="697.99083" y="169.24617" width="169.49743" height="5.24823" fill="#3f3d56"></rect>
    <rect x="697.99083" y="189.86555" width="169.49743" height="5.24823" fill="#3f3d56"></rect>
    <rect x="888.40147" y="52.28163" width="24.49176" height="24.49173" fill="#6c63ff"></rect>
    <path d="M1014.52225,319.8039h-29.74v-29.74h29.74Zm-28.4469-1.293h27.15381V291.357H986.07529Z" transform="translate(-90.2579 -231.65939)" fill="#ccc"></path>
    <path d="M1088.74918,610.23908h-61.22937v-4.41156a.87466.87466,0,0,0-.87463-.87469h-20.993a.87468.87468,0,0,0-.87476.87463v4.41162H991.657v-4.41156a.87468.87468,0,0,0-.8747-.87469H969.7894a.87467.87467,0,0,0-.87469.87469h0v4.41156H955.79416v-4.41156a.87467.87467,0,0,0-.87469-.87469h-20.993a.87468.87468,0,0,0-.8747.87469h0v4.41156H919.93125v-4.41156a.87468.87468,0,0,0-.8747-.87469H898.06363a.87466.87466,0,0,0-.87469.87463v4.41162H884.0684v-4.41156a.87468.87468,0,0,0-.8747-.87469H862.20078a.87467.87467,0,0,0-.87469.87469h0v4.41156H848.20548v-4.41156a.87467.87467,0,0,0-.87469-.87469H826.33787a.87468.87468,0,0,0-.8747.87469h0v4.41156H812.34263v-4.41156a.87468.87468,0,0,0-.8747-.87469H647.02347a.87467.87467,0,0,0-.87469.87469h0v4.41156H633.02817v-4.41156a.87467.87467,0,0,0-.87469-.87469H611.16062a.87468.87468,0,0,0-.8747.87469h0v4.41156h-13.1206v-4.41156a.87466.87466,0,0,0-.87463-.87469h-20.993a.87467.87467,0,0,0-.87469.87469h0v4.41156H561.3024v-4.41156a.87467.87467,0,0,0-.87469-.87469H539.43479a.87468.87468,0,0,0-.8747.87469h0v4.41156H525.43955v-4.41156a.87467.87467,0,0,0-.87469-.87469H503.57194a.87468.87468,0,0,0-.8747.87469h0v4.41156h-13.1206v-4.41156a.87468.87468,0,0,0-.8747-.87469H467.709a.87468.87468,0,0,0-.87469.87463v4.41162H453.71375v-4.41156a.87467.87467,0,0,0-.87466-.87469H431.84617a.8747.8747,0,0,0-.8747.87469h0v4.41156H390.735A20.99292,20.99292,0,0,0,369.74213,631.232v9.4925A20.99291,20.99291,0,0,0,390.735,661.71736h698.01416a20.99293,20.99293,0,0,0,20.99292-20.99286V631.232A20.9929,20.9929,0,0,0,1088.74918,610.23908Z" transform="translate(-90.2579 -231.65939)" fill="#3f3d56"></path>
  </symbol>
  <symbol version="1.1" id="menu" xmlns="http://www.w3.org/2000/svg" xmlns:xlink="http://www.w3.org/1999/xlink" x="0px" y="0px" enable-background="new 0 0 50 50" xml:space="preserve" viewBox="0 0 50 50">
    <path fill="#231F20" d="M8.667,15h30c0.552,0,1-0.447,1-1s-0.448-1-1-1h-30c-0.552,0-1,0.447-1,1S8.114,15,8.667,15z"></path>
    <path fill="#231F20" d="M8.667,37h30c0.552,0,1-0.447,1-1s-0.448-1-1-1h-30c-0.552,0-1,0.447-1,1S8.114,37,8.667,37z"></path>
    <path fill="#231F20" d="M8.667,26h30c0.552,0,1-0.447,1-1s-0.448-1-1-1h-30c-0.552,0-1,0.447-1,1S8.114,26,8.667,26z"></path>
  </symbol>
</svg>